<svg width="152" height="82" viewBox="0 0 152 82" fill="none" xmlns="http://www.w3.org/2000/svg">
<path d="M39.8244 25.4613C49.2139 25.4613 56.7896 33.0903 56.7896 42.4265V58.7516H50.601V54.9637H50.2276C50.2276 54.9637 46.4397 59.3384 39.9311 59.3918C39.8777 59.3918 39.8777 59.3918 39.8244 59.3918C30.4881 59.3918 22.9125 51.7627 22.9125 42.4265C22.9125 33.0903 30.4881 25.4613 39.8244 25.4613ZM39.8244 53.1498C45.7462 53.1498 50.601 48.3483 50.601 42.4265C50.601 36.5047 45.7462 31.7032 39.8244 31.7032C33.9025 31.7032 29.101 36.5047 29.101 42.4265C29.101 48.3483 33.9025 53.1498 39.8244 53.1498ZM62.1125 37.9451C62.1125 31.063 67.6609 25.5146 74.4896 25.5146V31.7032C71.0753 31.7032 68.3011 34.5307 68.3011 37.9451V59.0183H62.1125V37.9451ZM103.442 43.2801C107.923 45.7876 111.018 50.6424 111.018 56.1908V59.0183H104.776V56.1908C104.776 51.496 100.988 47.6548 96.2931 47.6548H86.0499V59.0183H79.8613V13.7243H86.0499V41.4129H92.9854C97.6801 41.4129 101.468 37.625 101.468 32.9303V26.3682H107.71V32.9303C107.71 36.9848 106.056 40.6126 103.442 43.2801ZM131.624 25.4613C141.013 25.4613 148.589 33.0903 148.589 42.4265V58.7516H142.4V54.9637H142.027C142.027 54.9637 138.239 59.3384 131.73 59.3918C131.677 59.3918 131.677 59.3918 131.624 59.3918C122.287 59.3918 114.712 51.7627 114.712 42.4265C114.712 33.0903 122.287 25.4613 131.624 25.4613ZM131.624 53.1498C137.545 53.1498 142.4 48.3483 142.4 42.4265C142.4 36.5047 137.545 31.7032 131.624 31.7032C125.702 31.7032 120.9 36.5047 120.9 42.4265C120.9 48.3483 125.702 53.1498 131.624 53.1498Z" fill="white"/>
<path d="M44.3242 4.70898C66.5554 4.70898 83.9395 21.2963 83.9395 41C83.9395 60.7037 66.5554 77.291 44.3242 77.291C22.0931 77.291 4.70898 60.7037 4.70898 41C4.70898 21.2963 22.0931 4.70904 44.3242 4.70898Z" stroke="url(#paint0_linear_1011_47)" stroke-width="9.41892"/>
<defs>
<linearGradient id="paint0_linear_1011_47" x1="72.4433" y1="41.0685" x2="1.57686e-05" y2="40.9885" gradientUnits="userSpaceOnUse">
<stop stop-color="#2F00FF" stop-opacity="0"/>
<stop offset="1" stop-color="#2F00FF"/>
</linearGradient>
</defs>
</svg>