<svg width="152" height="83" viewBox="0 0 152 83" fill="none" xmlns="http://www.w3.org/2000/svg">
<path d="M40.051 25.3218C49.494 25.3218 57.1127 32.9942 57.1127 42.3835V58.8013H50.889V54.992H50.5134C50.5134 54.992 46.704 59.3915 40.1583 59.4452C40.1047 59.4452 40.1047 59.4452 40.051 59.4452C30.6617 59.4452 23.043 51.7728 23.043 42.3835C23.043 32.9942 30.6617 25.3218 40.051 25.3218ZM40.051 53.1678C46.0065 53.1678 50.889 48.339 50.889 42.3835C50.889 36.428 46.0065 31.5992 40.051 31.5992C34.0955 31.5992 29.2667 36.428 29.2667 42.3835C29.2667 48.339 34.0955 53.1678 40.051 53.1678ZM62.4659 37.8766C62.4659 30.9553 68.0458 25.3754 74.9135 25.3754V31.5992C71.4796 31.5992 68.6897 34.4428 68.6897 37.8766V59.0696H62.4659V37.8766ZM104.03 43.2419C108.537 45.7636 111.649 50.6461 111.649 56.226V59.0696H105.372V56.226C105.372 51.5045 101.562 47.6415 96.8408 47.6415H86.5394V59.0696H80.3157V13.518H86.5394V41.3641H93.5143C98.2358 41.3641 102.045 37.5547 102.045 32.8332V26.2339H108.323V32.8332C108.323 36.9108 106.659 40.5593 104.03 43.2419ZM132.372 25.3218C141.815 25.3218 149.434 32.9942 149.434 42.3835V58.8013H143.21V54.992H142.835C142.835 54.992 139.025 59.3915 132.48 59.4452C132.426 59.4452 132.426 59.4452 132.372 59.4452C122.983 59.4452 115.364 51.7728 115.364 42.3835C115.364 32.9942 122.983 25.3218 132.372 25.3218ZM132.372 53.1678C138.328 53.1678 143.21 48.339 143.21 42.3835C143.21 36.428 138.328 31.5992 132.372 31.5992C126.417 31.5992 121.588 36.428 121.588 42.3835C121.588 48.339 126.417 53.1678 132.372 53.1678Z" fill="#0D0D0D"/>
<path d="M44.5762 4.73633C66.9337 4.73633 84.417 21.4176 84.417 41.2334C84.4168 61.0491 66.9336 77.7305 44.5762 77.7305C22.2188 77.7304 4.73647 61.049 4.73633 41.2334C4.73633 21.4177 22.2187 4.73643 44.5762 4.73633Z" stroke="url(#paint0_linear_1011_37)" stroke-width="9.47248"/>
<defs>
<linearGradient id="paint0_linear_1011_37" x1="72.8552" y1="41.302" x2="1.58583e-05" y2="41.2215" gradientUnits="userSpaceOnUse">
<stop stop-color="#2F00FF" stop-opacity="0"/>
<stop offset="1" stop-color="#2F00FF"/>
</linearGradient>
</defs>
</svg>